<?xml version="1.0" standalone="no"?>
<!DOCTYPE svg PUBLIC "-//W3C//DTD SVG 20010904//EN"
 "http://www.w3.org/TR/2001/REC-SVG-20010904/DTD/svg10.dtd">
<svg version="1.0" xmlns="http://www.w3.org/2000/svg"
 width="500.000000pt" height="500.000000pt" viewBox="0 0 500.000000 500.000000"
 preserveAspectRatio="xMidYMid meet">
<metadata>
Created by potrace 1.14, written by Peter Selinger 2001-2017
</metadata>
<g transform="translate(0.000000,500.000000) scale(0.100000,-0.100000)"
fill="#000000" stroke="none">
<path d="M2470 3790 c-20 -20 -21 -31 -20 -371 2 -296 4 -354 17 -368 16 -19
58 -17 71 3 4 6 8 170 8 365 1 333 0 355 -17 372 -24 24 -34 24 -59 -1z"/>
<path d="M1509 3389 c-11 -11 -16 -25 -12 -36 3 -10 79 -91 167 -181 250 -254
316 -317 331 -320 8 -2 15 -7 15 -12 0 -12 32 0 42 14 23 33 2 59 -241 301
-137 137 -257 250 -266 251 -9 1 -25 -6 -36 -17z"/>
<path d="M3192 3160 c-137 -137 -247 -252 -244 -255 3 -3 1 -5 -5 -5 -22 0 0
-49 26 -58 27 -9 38 0 278 242 138 138 253 258 256 268 3 9 0 24 -7 34 -32 43
-46 32 -304 -226z"/>
<path d="M2851 3382 c-11 -9 -34 -53 -51 -97 -17 -44 -35 -89 -40 -100 -24
-50 -56 -152 -53 -167 5 -19 23 -28 49 -23 11 2 22 4 25 4 6 1 46 96 100 236
13 33 26 65 29 70 4 6 6 25 6 44 -1 43 -34 59 -65 33z"/>
<path d="M2071 3374 c-24 -17 -21 -53 10 -121 13 -26 24 -50 24 -53 1 -3 7
-16 12 -30 6 -14 25 -56 41 -95 20 -47 39 -75 57 -85 25 -14 27 -14 45 8 21
26 18 40 -36 160 -13 29 -24 55 -24 58 0 3 -9 26 -21 52 -51 117 -68 134 -108
106z"/>
<path d="M2418 2859 c-16 -4 -28 -5 -28 -2 0 3 -7 0 -15 -7 -8 -7 -15 -10 -15
-6 0 12 -104 -46 -148 -82 -66 -53 -117 -124 -145 -199 -24 -68 -28 -87 -29
-153 -1 -109 38 -220 107 -304 36 -45 35 -51 -10 -61 -6 -2 -46 -19 -90 -40
-244 -113 -403 -214 -520 -330 -55 -55 -68 -88 -43 -113 24 -24 54 -10 123 54
134 126 394 278 594 349 24 8 50 20 58 26 7 6 13 9 13 5 0 -5 33 6 115 39 11
4 27 9 35 11 19 3 53 12 60 14 3 1 10 3 15 5 6 1 12 3 15 4 3 2 12 4 20 6 12
2 105 22 140 30 7 1 102 18 120 20 76 12 218 19 326 18 127 -2 132 -1 141 20
5 12 8 30 5 39 -6 30 -39 35 -220 37 l-103 1 7 38 c4 20 9 46 10 57 1 11 3 22
4 25 4 8 0 93 -4 125 -7 44 -33 113 -58 154 -30 49 -118 141 -134 141 -8 0
-14 4 -14 9 0 9 -106 59 -143 67 -40 9 -161 11 -189 3z"/>
<path d="M3385 2836 c-61 -29 -161 -73 -208 -92 -74 -30 -100 -54 -92 -87 10
-37 45 -36 132 4 134 62 176 79 189 79 8 0 14 5 14 11 0 5 4 8 8 5 13 -8 52
32 52 52 0 41 -41 53 -95 28z"/>
<path d="M1528 2815 c-24 -17 -28 -42 -10 -63 9 -10 67 -38 127 -61 61 -23
124 -49 142 -57 76 -35 123 -27 123 21 0 25 -18 44 -48 50 -11 2 -28 8 -38 14
-11 6 -50 22 -89 36 -38 14 -83 32 -98 40 -16 8 -35 15 -43 15 -8 0 -14 4 -14
8 0 11 -36 10 -52 -3z"/>
<path d="M1114 2436 c-27 -19 -21 -62 10 -73 31 -10 676 -11 709 0 21 7 27 15
27 37 0 15 -6 32 -13 38 -9 7 -129 11 -362 12 -294 0 -353 -2 -371 -14z"/>
<path d="M3159 2443 c-25 -6 -30 -51 -8 -72 16 -15 52 -16 367 -16 373 1 382
2 382 49 0 46 -5 46 -374 45 -193 -1 -358 -3 -367 -6z"/>
<path d="M1830 2167 c-14 -6 -58 -26 -98 -44 -41 -18 -75 -33 -76 -33 -2 0
-25 -10 -52 -22 -27 -12 -53 -22 -59 -23 -17 0 -34 -47 -24 -66 18 -35 46 -31
186 29 197 85 212 93 213 119 0 26 -25 53 -48 52 -9 0 -28 -5 -42 -12z"/>
<path d="M2550 1874 c-41 -6 -95 -17 -120 -24 -25 -7 -54 -14 -65 -16 -69 -13
-266 -89 -379 -146 -184 -93 -391 -255 -482 -379 -39 -54 -43 -82 -13 -103 30
-20 54 -6 108 63 57 72 158 161 269 234 94 64 331 183 381 193 17 4 31 11 31
17 0 6 3 8 6 4 3 -3 25 1 47 9 103 37 223 57 372 60 83 2 153 4 157 4 14 0 29
41 23 60 -3 10 -18 23 -33 28 -37 13 -211 11 -302 -4z"/>
<path d="M2335 1543 c-205 -29 -445 -177 -445 -275 0 -26 16 -38 49 -38 9 0
37 21 63 48 90 92 240 160 368 166 73 4 100 16 100 45 0 43 -56 65 -135 54z"/>
</g>
</svg>
